<svg width="28" height="24" viewBox="0 0 28 24" fill="none" xmlns="http://www.w3.org/2000/svg">
<path d="M27.0992 -0.0100023V4.17C24.8992 4.53666 23.3592 5.30666 22.4792 6.48C21.5992 7.65333 21.1592 9.74333 21.1592 12.75H26.7692V23.2H15.9892V14.4C15.9892 9.85333 16.8326 6.33333 18.5192 3.83999C20.2059 1.27333 23.0659 -0.0100023 27.0992 -0.0100023ZM11.2592 -0.0100023V4.17C9.05922 4.53666 7.51922 5.30666 6.63922 6.48C5.75922 7.65333 5.31922 9.74333 5.31922 12.75H10.9292V23.2H0.149219V14.4C0.149219 9.85333 0.992552 6.33333 2.67922 3.83999C4.36589 1.27333 7.22589 -0.0100023 11.2592 -0.0100023Z" fill="white"/>
</svg>
